<?xml version="1.0" encoding="UTF-8"?>
<svg id="Layer_1" data-name="Layer 1" xmlns="http://www.w3.org/2000/svg" viewBox="0 0 2759.64 443.51">
  <defs>
    <style>
      .cls-1 {
        fill: none;
        stroke: #231f20;
        stroke-miterlimit: 10;
        stroke-width: 50px;
      }
    </style>
  </defs>
  <line class="cls-1" x1="237.73" y1="219.96" x2="237.73" y2="91.36"/>
  <line class="cls-1" x1="237.73" y1="91.36" x2="306.56" y2="51.63"/>
  <line class="cls-1" x1="237.73" y1="91.36" x2="168.9" y2="51.63"/>
  <line class="cls-1" x1="349.1" y1="284.25" x2="237.73" y2="219.96"/>
  <line class="cls-1" x1="349.1" y1="284.25" x2="417.92" y2="244.51"/>
  <line class="cls-1" x1="349.1" y1="363.73" x2="349.1" y2="284.25"/>
  <line class="cls-1" x1="126.37" y1="284.25" x2="237.73" y2="219.96"/>
  <line class="cls-1" x1="126.37" y1="284.25" x2="57.54" y2="244.51"/>
  <line class="cls-1" x1="126.37" y1="363.73" x2="126.37" y2="284.25"/>
  <line id="_0_Line_" data-name="0&amp;lt;Line&amp;gt;" class="cls-1" x1="168.9" y1="51.63" x2="126.37" y2="76.19"/>
  <line id="_0_Line_-2" data-name="0&amp;lt;Line&amp;gt;" class="cls-1" x1="168.9" y1="2.51" x2="168.9" y2="51.63"/>
  <line id="_0_Line_-3" data-name="0&amp;lt;Line&amp;gt;" class="cls-1" x1="349.1" y1="76.19" x2="306.56" y2="51.63"/>
  <line id="_0_Line_-4" data-name="0&amp;lt;Line&amp;gt;" class="cls-1" x1="306.56" y1="2.51" x2="306.56" y2="51.63"/>
  <line id="_0_Line_-5" data-name="0&amp;lt;Line&amp;gt;" class="cls-1" x1="460.47" y1="269.07" x2="417.93" y2="244.51"/>
  <line id="_0_Line_-6" data-name="0&amp;lt;Line&amp;gt;" class="cls-1" x1="57.54" y1="244.51" x2="15" y2="269.07"/>
  <line id="_0_Line_-7" data-name="0&amp;lt;Line&amp;gt;" class="cls-1" x1="57.54" y1="195.39" x2="57.54" y2="244.51"/>
  <line id="_0_Line_-8" data-name="0&amp;lt;Line&amp;gt;" class="cls-1" x1="417.92" y1="195.39" x2="417.92" y2="244.51"/>
  <line id="_0_Line_-9" data-name="0&amp;lt;Line&amp;gt;" class="cls-1" x1="168.91" y1="388.29" x2="126.37" y2="363.73"/>
  <line id="_0_Line_-10" data-name="0&amp;lt;Line&amp;gt;" class="cls-1" x1="126.37" y1="363.73" x2="83.83" y2="388.29"/>
  <line id="_0_Line_-11" data-name="0&amp;lt;Line&amp;gt;" class="cls-1" x1="349.1" y1="363.73" x2="306.56" y2="388.29"/>
  <line id="_0_Line_-12" data-name="0&amp;lt;Line&amp;gt;" class="cls-1" x1="391.64" y1="388.29" x2="349.1" y2="363.73"/>
</svg>